<?xml version="1.0" standalone="no"?>
<!DOCTYPE svg PUBLIC "-//W3C//DTD SVG 20010904//EN"
 "http://www.w3.org/TR/2001/REC-SVG-20010904/DTD/svg10.dtd">
<svg version="1.0" xmlns="http://www.w3.org/2000/svg"
 width="599.000000pt" height="599.000000pt" viewBox="0 0 599.000000 599.000000"
 preserveAspectRatio="xMidYMid meet">
<metadata>
Created by potrace 1.14, written by Peter Selinger 2001-2017
</metadata>
<g transform="translate(0.000000,599.000000) scale(0.100000,-0.100000)"
fill="#000000" stroke="none">
<path d="M2024 5974 c3 -8 0 -13 -7 -11 -7 1 -11 -6 -11 -16 2 -14 -1 -15 -12
-6 -23 19 -16 2 9 -21 12 -12 16 -20 8 -18 -7 2 -16 -3 -19 -11 -3 -9 0 -11 8
-6 7 4 4 -4 -5 -19 -10 -15 -20 -24 -23 -22 -2 3 -14 1 -25 -5 -14 -8 -18 -8
-13 0 9 14 4 14 -31 -1 -15 -6 -34 -10 -42 -9 -9 2 -12 -4 -8 -18 3 -12 0 -24
-5 -28 -7 -3 -8 -1 -4 5 4 7 3 12 -3 12 -5 0 -9 -9 -8 -20 1 -14 6 -19 16 -15
13 5 12 3 -1 -12 -16 -18 -21 -56 -7 -47 5 2 6 12 3 22 -5 14 -4 14 4 2 7 -9
7 -19 2 -26 -6 -6 -7 -13 -5 -16 3 -3 -6 -4 -20 -3 -14 2 -23 -1 -19 -6 3 -5
10 -7 15 -4 5 4 9 2 9 -4 0 -20 -40 -7 -41 14 -1 17 -2 16 -9 -5 -5 -16 -8
-19 -9 -8 -1 9 -5 20 -11 23 -6 4 -7 -1 -3 -12 6 -17 6 -17 -14 0 -15 13 -23
15 -28 7 -4 -6 -13 -9 -21 -6 -11 4 -12 1 -5 -12 12 -23 -7 -62 -20 -41 -6 9
-9 10 -9 2 0 -6 4 -14 9 -17 4 -3 7 -17 6 -30 -2 -14 3 -27 11 -30 8 -3 14
-11 14 -18 0 -10 -2 -10 -9 1 -7 11 -10 11 -17 0 -4 -7 -3 -14 4 -17 15 -5 16
-32 1 -32 -5 0 -7 5 -3 12 4 7 3 8 -5 4 -6 -4 -8 -13 -4 -19 11 -18 10 -60 -1
-76 -9 -12 -7 -12 14 -2 l25 12 -25 -22 c-14 -12 -24 -29 -22 -38 2 -13 1 -14
-7 -2 -6 10 -29 15 -66 16 -31 1 -50 -2 -44 -6 7 -4 18 -5 24 -2 5 4 6 2 2 -3
-5 -5 -12 -9 -15 -9 -4 0 -13 -4 -21 -9 -9 -6 -12 -5 -7 2 3 6 2 13 -3 17 -6
3 -8 -6 -5 -21 3 -15 1 -23 -5 -20 -6 4 -8 -3 -6 -15 3 -13 10 -26 16 -30 8
-5 6 -9 -7 -12 -16 -4 -17 -5 -1 -6 9 0 17 -6 17 -12 0 -6 -7 -8 -17 -4 -13 4
-12 1 5 -15 26 -25 27 -27 7 -27 -8 0 -15 5 -15 10 0 6 -2 8 -5 5 -8 -8 6 -39
14 -33 4 2 8 -2 8 -10 0 -8 -4 -12 -9 -9 -4 3 -8 1 -8 -5 0 -5 6 -12 13 -14
10 -4 10 -6 0 -6 -7 -1 -13 -6 -13 -12 0 -5 4 -8 9 -4 5 3 12 1 15 -4 4 -5 1
-13 -5 -17 -8 -4 -9 -3 -5 4 11 18 0 14 -15 -5 -10 -11 -10 -14 -1 -9 15 9 16
-6 1 -21 -7 -7 -6 -15 5 -26 18 -17 21 -32 6 -22 -6 4 -7 -1 -3 -11 4 -11 3
-15 -5 -10 -7 4 -9 -1 -7 -15 3 -13 10 -26 17 -31 12 -7 4 -12 -15 -9 -5 1 -5
-3 -2 -9 4 -6 14 -9 22 -6 8 3 11 1 8 -4 -3 -6 -13 -10 -21 -10 -8 0 -13 -4
-10 -9 3 -5 -2 -12 -12 -16 -27 -13 -43 -14 -36 -4 3 5 10 6 16 3 7 -5 8 -2 3
6 -6 9 -4 11 5 5 9 -5 11 -4 6 4 -5 8 -12 9 -19 2 -18 -14 -29 -14 -39 1 -6 9
-7 6 -3 -10 6 -21 5 -22 -13 -11 -12 7 -18 18 -14 24 3 5 -1 4 -10 -2 -8 -7
-19 -9 -23 -5 -5 4 -5 1 -1 -6 4 -7 12 -9 18 -6 7 5 8 2 4 -5 -5 -7 -11 -10
-14 -7 -3 3 -11 -3 -19 -13 -15 -22 -7 -55 11 -44 6 4 4 -1 -4 -12 -16 -19
-16 -21 3 -45 10 -13 10 -13 -5 -1 -11 8 -18 9 -18 3 0 -6 5 -14 11 -18 8 -4
7 -9 -2 -14 -7 -5 -13 -18 -14 -29 -1 -11 2 -18 7 -15 5 4 7 12 5 18 -3 7 1
13 8 13 10 0 11 -5 4 -19 -5 -10 -7 -24 -3 -30 5 -7 2 -9 -7 -4 -8 4 -5 0 6
-10 17 -14 17 -16 3 -11 -10 4 -18 2 -18 -3 0 -5 8 -17 18 -26 16 -17 16 -17
0 -11 -10 3 -20 2 -23 -3 -4 -6 2 -10 11 -10 16 0 16 -1 -2 -16 -10 -8 -14
-13 -9 -10 6 2 17 1 25 -5 13 -7 12 -9 -2 -9 -21 0 -32 -16 -17 -26 8 -4 9 -3
5 4 -11 18 0 14 15 -5 8 -9 9 -14 3 -10 -13 7 -26 -15 -28 -48 -1 -14 5 -21
21 -22 13 -2 34 -4 47 -5 20 -3 22 -6 13 -18 -7 -8 4 -5 26 8 21 12 36 19 34
15 -3 -5 1 -13 8 -20 11 -10 15 -10 18 0 3 7 6 2 6 -11 1 -13 5 -20 11 -17 6
3 7 -1 4 -10 -6 -14 -8 -14 -20 2 -13 16 -13 15 -3 -9 9 -21 9 -31 0 -41 -9
-11 -8 -17 3 -27 13 -10 14 -8 11 10 -2 13 -1 20 2 16 4 -4 8 -16 10 -27 2
-14 -2 -19 -13 -17 -10 2 -19 -3 -22 -11 -3 -10 0 -11 9 -5 12 7 12 5 0 -9 -7
-9 -19 -17 -25 -17 -6 0 -4 5 4 10 12 8 12 10 -5 11 -11 0 -28 2 -38 4 -9 2
-15 -1 -11 -6 3 -5 9 -7 14 -4 5 3 11 2 13 -2 3 -5 -11 -8 -31 -9 -21 0 -31 1
-24 3 6 3 12 9 12 14 0 6 -7 6 -17 1 -10 -5 -24 -7 -30 -5 -7 3 -13 0 -13 -7
0 -6 5 -8 10 -5 6 3 10 1 10 -6 0 -6 -8 -9 -17 -7 -14 4 -18 -1 -18 -19 0 -20
2 -21 11 -8 10 14 12 12 10 -9 0 -13 -5 -22 -11 -19 -5 2 -1 -3 10 -13 17 -14
17 -16 3 -11 -23 8 -23 -7 0 -29 15 -16 15 -17 0 -11 -10 3 -28 -3 -44 -16
-16 -12 -25 -17 -21 -10 4 6 0 16 -8 23 -13 11 -14 10 -9 -6 7 -18 6 -18 -16
1 -13 11 -20 14 -16 8 4 -7 2 -13 -4 -13 -6 0 -8 -5 -4 -12 4 -7 3 -8 -4 -4
-6 4 -9 13 -5 21 3 8 3 15 0 15 -9 0 -46 -78 -40 -84 3 -3 2 -13 -2 -23 -11
-26 -13 -63 -3 -57 11 7 10 -3 -3 -27 -7 -14 -7 -24 0 -33 7 -9 7 -16 -2 -26
-10 -10 -9 -12 6 -7 10 4 16 3 12 -2 -3 -5 1 -12 7 -15 7 -4 3 -4 -9 -2 -17 3
-21 0 -18 -15 2 -11 6 -23 10 -28 3 -5 0 -13 -6 -17 -8 -4 -9 -3 -5 4 4 7 2
12 -3 12 -6 0 -11 -6 -11 -12 0 -7 -5 -5 -11 5 -8 14 -14 16 -25 6 -8 -6 -14
-9 -14 -5 0 3 -12 1 -26 -4 -15 -6 -23 -6 -19 0 6 10 -34 5 -44 -6 -3 -4 2 -5
11 -1 9 3 19 0 22 -8 3 -9 -1 -12 -15 -10 -11 2 -17 0 -14 -5 3 -4 2 -10 -2
-13 -5 -2 -2 -2 5 -1 6 2 12 -4 12 -12 0 -9 -5 -12 -12 -8 -6 4 -8 3 -4 -4 3
-5 0 -13 -6 -16 -7 -3 -6 -4 4 -3 9 1 17 -2 17 -8 1 -5 -3 -10 -8 -10 -5 0
-13 -4 -18 -9 -4 -5 -3 -7 2 -3 6 3 17 2 25 -4 12 -7 10 -9 -9 -9 -15 0 -21
-5 -18 -13 3 -8 -1 -14 -9 -14 -8 0 -14 7 -15 16 -1 9 -5 5 -9 -9 -5 -15 -8
-18 -9 -8 -1 11 -7 15 -21 11 -11 -3 -26 0 -33 6 -10 8 -14 7 -14 -4 0 -8 5
-11 10 -8 6 3 7 1 3 -6 -4 -6 -17 -9 -30 -7 -18 3 -22 -1 -22 -19 0 -13 4 -21
8 -19 5 3 5 11 2 17 -5 9 -4 9 5 1 12 -11 4 -47 -9 -39 -9 6 -4 -60 6 -76 4
-7 3 -9 -4 -5 -6 3 -14 1 -18 -5 -4 -7 -3 -9 3 -6 6 4 16 0 23 -8 11 -13 10
-14 -6 -8 -17 6 -18 5 -4 -12 11 -14 12 -17 1 -11 -9 6 -12 5 -9 -5 3 -8 11
-13 17 -11 7 1 10 -2 6 -8 -3 -6 -10 -8 -15 -5 -9 6 3 -46 16 -66 4 -8 3 -9
-4 -5 -8 5 -12 0 -12 -13 0 -10 -3 -27 -6 -35 -5 -12 -2 -15 12 -10 16 5 16 4
4 -5 -13 -9 -13 -13 -1 -33 13 -22 13 -22 -4 -8 -16 14 -17 13 -12 -5 4 -11 2
-27 -3 -35 -6 -9 -10 -10 -10 -3 0 6 -9 11 -19 10 -12 -1 -17 -6 -14 -15 5
-11 7 -11 14 0 6 9 9 9 9 1 0 -6 -3 -14 -8 -17 -11 -7 -43 20 -34 29 4 5 0 4
-8 -1 -24 -14 -52 -16 -44 -2 4 7 3 8 -4 4 -7 -4 -12 -15 -12 -24 0 -15 -2
-15 -10 -2 -5 8 -10 10 -10 4 0 -5 6 -16 12 -23 10 -11 10 -13 1 -7 -16 9 -17
-6 -2 -21 9 -9 6 -10 -12 -6 -22 5 -22 4 -6 -8 18 -15 33 -64 16 -54 -5 4 -7
10 -4 15 3 5 1 11 -4 15 -9 5 -7 -24 5 -70 4 -17 3 -18 -6 -5 -10 13 -11 12
-6 -3 3 -10 6 -21 6 -23 0 -3 6 -2 13 2 6 4 3 -3 -7 -15 -20 -22 -30 -51 -18
-50 4 1 14 1 22 0 12 -1 12 -4 -3 -12 -9 -5 -17 -17 -17 -25 0 -8 5 -12 10 -9
6 4 7 11 4 17 -5 7 -2 8 5 3 9 -5 10 -10 2 -18 -17 -17 -44 -17 -62 -1 -14 12
-16 12 -16 -1 0 -8 5 -11 10 -8 6 4 7 1 2 -7 -6 -10 -11 -9 -22 5 -12 17 -18
13 -14 -8 1 -5 -3 -6 -9 -2 -6 3 -8 10 -5 15 3 5 0 12 -6 16 -8 4 -9 3 -5 -4
4 -7 2 -12 -5 -12 -7 0 -8 -5 -3 -13 5 -7 2 -5 -7 5 -15 15 -18 16 -23 3 -3
-8 -5 -18 -5 -21 0 -4 -5 -11 -13 -16 -9 -7 -6 -8 10 -5 19 5 21 3 11 -9 -6
-7 -16 -11 -22 -7 -6 4 -7 1 -1 -8 13 -21 13 -82 0 -98 -7 -9 -7 -12 -1 -9 6
4 17 3 25 -3 13 -7 12 -9 -2 -9 -9 0 -20 -5 -24 -12 -4 -7 -3 -8 4 -4 7 4 12
1 12 -9 0 -10 -5 -13 -12 -9 -10 6 -10 5 -1 -8 7 -8 10 -18 6 -21 -3 -4 2 -16
12 -28 16 -17 17 -22 5 -29 -8 -5 -21 -5 -28 -1 -8 5 -24 6 -35 3 -15 -4 -18
-2 -12 9 7 12 6 12 -7 1 -13 -11 -21 -11 -39 -2 -14 8 -19 8 -15 1 4 -6 0 -11
-11 -11 -10 0 -25 -5 -33 -11 -13 -9 -13 -10 2 -6 9 3 19 -1 22 -9 3 -9 1 -12
-4 -9 -6 4 -10 -25 -10 -79 0 -51 4 -88 11 -92 7 -4 7 -9 1 -13 -5 -3 -12 -16
-16 -28 -6 -19 -4 -22 11 -17 16 6 16 5 -2 -10 -11 -10 -14 -14 -6 -10 10 5
12 3 7 -5 -5 -7 -15 -10 -23 -7 -9 4 -17 -1 -20 -14 -4 -15 -9 -18 -18 -10
-10 8 -16 7 -23 -6 -9 -16 -10 -15 -17 5 l-7 23 -15 -21 c-11 -16 -18 -19 -32
-11 -16 8 -17 6 -13 -17 4 -20 2 -24 -8 -18 -10 6 -11 4 -4 -6 13 -19 12 -122
-1 -132 -6 -5 -3 -7 7 -3 10 3 20 1 23 -4 4 -6 -1 -10 -9 -10 -8 0 -18 -5 -22
-12 -5 -7 -3 -8 6 -3 8 5 11 3 8 -6 -3 -8 -1 -22 4 -32 6 -11 5 -17 -3 -17 -9
0 -9 -3 0 -14 9 -11 9 -16 0 -22 -8 -4 -9 -3 -5 4 4 7 3 12 -2 12 -5 0 -12 -9
-15 -20 -5 -19 -7 -19 -41 -5 -26 11 -37 12 -42 3 -5 -7 -3 -8 6 -3 9 6 11 4
5 -5 -6 -10 -11 -9 -22 5 -7 11 -13 13 -13 6 0 -7 -5 -9 -10 -6 -6 4 -10 3 -9
-2 3 -20 -2 -44 -8 -40 -5 3 -8 -6 -8 -19 0 -14 6 -24 15 -25 9 0 5 -4 -7 -9
-24 -10 -30 -25 -13 -35 6 -3 7 1 4 9 -3 9 -1 16 6 16 6 0 9 -4 5 -9 -3 -5 -1
-12 5 -16 16 -10 0 -27 -19 -21 -9 4 -7 -2 8 -14 13 -11 18 -20 12 -20 -6 0
-11 -7 -11 -16 0 -9 5 -12 12 -8 7 4 8 3 4 -5 -4 -6 -13 -8 -19 -4 -7 4 -5 -2
3 -12 8 -10 10 -16 3 -12 -6 4 -15 2 -19 -4 -4 -8 -3 -9 4 -5 7 4 12 2 12 -4
0 -6 6 -8 13 -4 7 4 9 3 4 -2 -5 -5 -13 -10 -18 -10 -5 -1 -12 -2 -15 -3 -3 0
4 -14 15 -30 20 -28 20 -28 1 -46 -15 -14 -17 -21 -9 -31 6 -8 9 -21 5 -29 -3
-9 1 -18 10 -22 14 -5 12 -8 -7 -20 -20 -12 -21 -13 -3 -8 16 4 20 0 20 -20 0
-14 -6 -25 -14 -25 -9 0 -12 -9 -9 -29 3 -17 0 -32 -6 -35 -7 -3 -1 -3 12 0
19 5 23 3 18 -10 -3 -8 -1 -18 5 -22 7 -4 8 -3 4 4 -4 7 -1 12 9 12 10 0 13
-5 9 -12 -4 -7 -3 -8 4 -4 7 4 12 14 12 22 0 8 4 13 10 9 5 -3 7 -13 4 -23 -5
-16 -5 -16 5 0 11 16 51 14 51 -3 0 -5 8 -9 17 -9 13 0 14 -3 5 -12 -15 -15
-15 -28 -1 -28 5 0 7 5 3 12 -4 7 -3 8 4 4 6 -4 8 -14 5 -23 -5 -12 -3 -14 7
-8 9 5 11 4 6 -4 -5 -8 -12 -9 -20 -2 -9 7 -11 3 -10 -17 1 -15 3 -29 4 -32 1
-3 2 -8 2 -12 -1 -3 5 -11 12 -18 11 -8 16 -8 22 1 5 8 3 9 -6 4 -9 -6 -11 -4
-5 5 6 9 4 11 -5 5 -9 -5 -11 -4 -6 3 5 9 12 9 26 0 15 -10 17 -15 7 -28 -10
-13 -10 -13 4 -3 12 10 18 10 29 0 12 -10 12 -9 2 5 -8 9 -9 19 -4 22 6 3 13
-1 16 -10 3 -8 10 -13 15 -9 5 3 12 1 15 -4 4 -5 22 -1 44 9 35 17 61 18 33 1
-10 -6 -9 -10 4 -14 11 -5 14 -3 9 5 -5 8 -2 9 10 5 11 -5 15 -3 10 4 -4 7 -1
10 7 7 8 -3 13 -11 11 -17 -1 -7 2 -10 8 -6 6 3 8 11 5 16 -3 5 1 6 9 3 8 -3
24 -1 35 6 12 6 21 7 21 1 0 -5 -5 -11 -12 -13 -7 -3 -5 -7 6 -11 11 -5 15 -3
10 5 -5 8 -2 9 10 5 10 -4 15 -3 11 3 -9 14 5 12 36 -4 21 -11 26 -11 26 0 0
7 -4 11 -8 8 -4 -2 -10 0 -13 5 -4 5 2 8 11 6 10 -2 22 -4 26 -4 5 -1 5 -6 2
-12 -4 -6 0 -9 10 -7 23 4 28 -29 7 -42 -15 -8 -15 -9 3 -10 17 0 17 -2 5 -10
-8 -5 -10 -10 -5 -10 6 0 11 -9 12 -20 1 -11 -2 -18 -6 -15 -5 2 -15 -3 -22
-13 -12 -15 -12 -16 2 -5 9 7 19 10 22 6 4 -3 -1 -12 -11 -20 -15 -11 -15 -12
-1 -7 10 3 20 0 25 -7 4 -7 3 -10 -3 -6 -6 4 -16 0 -23 -8 -11 -13 -10 -14 3
-9 11 4 15 0 13 -13 -2 -10 1 -24 7 -31 8 -10 7 -12 -4 -10 -8 2 -17 7 -21 13
-4 5 -6 0 -6 -12 1 -11 7 -19 14 -16 7 2 15 -1 19 -7 3 -6 1 -9 -6 -8 -7 2
-14 -6 -16 -17 -3 -16 -2 -17 6 -5 9 13 12 13 23 1 10 -10 10 -12 1 -7 -7 4
-13 2 -13 -4 0 -7 7 -9 16 -6 9 3 28 6 42 6 21 0 24 2 12 10 -8 5 -10 10 -5
10 14 -1 42 -23 44 -35 1 -5 11 -9 22 -7 18 3 19 1 10 -17 -15 -27 -14 -31 6
-24 12 4 10 -1 -7 -16 -17 -15 -19 -21 -8 -17 10 3 20 0 24 -6 4 -7 3 -8 -4
-4 -7 4 -12 1 -12 -8 0 -8 5 -18 10 -21 7 -4 7 -12 2 -18 -12 -16 -13 -55 -1
-62 5 -4 9 -12 9 -18 0 -7 -4 -6 -10 3 -7 11 -10 8 -10 -15 0 -17 -5 -36 -11
-42 -8 -8 -3 -11 20 -9 17 1 31 -2 31 -7 0 -4 5 -5 12 -1 8 5 9 1 5 -12 -7
-18 -6 -18 7 -1 14 19 36 23 36 7 0 -5 3 -9 8 -9 27 5 44 -2 38 -17 -3 -8 -2
-13 2 -11 4 3 14 -2 21 -11 13 -14 13 -15 -6 -10 -27 7 -25 -23 2 -32 18 -6
18 -7 -1 -12 -12 -3 -21 -12 -21 -21 0 -9 6 -13 15 -10 11 5 11 7 0 15 -10 8
-10 9 2 5 9 -2 15 -15 14 -30 0 -14 3 -24 7 -21 4 2 9 -1 11 -8 3 -7 7 -5 11
6 5 11 3 15 -5 10 -7 -4 -8 -3 -4 4 10 17 15 15 26 -10 6 -17 9 -19 9 -6 1 12
6 15 18 11 11 -4 14 -3 9 5 -6 9 -1 9 18 0 14 -6 26 -16 26 -22 0 -6 -5 -5
-12 2 -7 7 -17 12 -22 12 -6 0 0 -7 13 -16 14 -10 21 -23 18 -34 -3 -14 -1
-17 11 -13 9 4 13 2 9 -4 -12 -20 -17 -73 -7 -73 6 0 8 4 5 10 -4 6 1 7 11 3
15 -6 15 -7 -2 -21 -18 -13 -18 -14 5 -7 18 6 22 4 15 -6 -6 -12 -5 -12 9 0
14 11 20 11 32 1 11 -9 15 -9 15 -1 0 7 4 9 10 6 6 -3 7 1 4 12 -4 15 -3 14 7
-2 16 -26 29 -34 46 -28 7 3 13 0 13 -7 0 -6 -4 -8 -10 -5 -12 7 -14 -8 -3
-19 5 -4 8 -23 8 -41 1 -25 -3 -32 -15 -28 -12 4 -11 2 2 -10 13 -10 14 -17 6
-25 -8 -8 -5 -9 11 -5 14 3 21 1 21 -8 0 -11 2 -11 10 1 9 13 11 13 20 0 6
-10 10 -11 10 -2 0 6 9 12 21 12 13 0 18 4 13 13 -4 6 3 3 15 -7 26 -24 67
-31 49 -9 -6 7 -8 16 -4 20 3 3 6 1 6 -5 0 -7 7 -12 16 -12 9 0 12 -5 8 -12
-4 -7 -3 -8 4 -4 7 4 12 15 13 24 1 11 4 8 9 -8 5 -16 8 -19 9 -8 1 9 6 20 13
24 7 5 8 3 3 -6 -6 -10 -4 -12 8 -7 12 4 17 1 17 -10 0 -9 3 -14 6 -10 4 3 13
-1 21 -9 9 -8 13 -18 9 -21 -3 -3 -2 -11 2 -18 4 -6 -2 -2 -12 10 -19 20 -19
20 -11 0 4 -11 8 -25 8 -32 0 -7 4 -10 9 -7 4 3 8 -1 8 -9 0 -11 202 -13 1290
-13 843 -1 1287 3 1283 9 -4 6 -1 7 8 1 15 -10 111 -15 147 -8 13 3 20 9 17
14 -3 6 -1 10 4 10 6 0 11 -5 11 -12 0 -6 3 -8 6 -5 4 4 1 13 -6 22 -10 12
-16 13 -29 3 -10 -8 -9 -5 3 10 20 23 32 30 20 10 -4 -7 -3 -8 4 -4 17 10 15
15 -10 26 -19 7 -19 9 -5 9 10 1 15 6 12 11 -4 6 -12 7 -18 3 -8 -5 -8 -2 0 9
7 8 10 18 6 21 -3 4 -1 7 6 7 7 0 11 -6 8 -13 -3 -7 3 -13 14 -13 13 0 15 4 8
12 -7 8 -6 15 2 20 8 4 9 3 5 -4 -7 -12 -2 -14 39 -16 11 -1 26 -5 33 -10 11
-7 12 -4 4 11 -9 15 -8 20 4 20 7 0 14 -7 14 -16 0 -11 3 -10 15 5 15 18 15
18 8 0 -4 -13 -3 -17 4 -13 6 4 13 2 15 -5 3 -7 7 -5 11 6 5 11 3 15 -5 10 -7
-4 -8 -3 -4 4 7 11 36 6 36 -7 0 -14 35 -9 53 7 15 13 17 13 14 1 -2 -8 -2
-11 0 -6 3 4 10 4 16 0 7 -4 4 4 -5 19 -17 25 -15 38 6 38 6 0 5 -4 -2 -9 -11
-7 -11 -9 0 -14 10 -3 14 3 14 18 0 13 -3 22 -6 20 -3 -2 -12 0 -20 6 -12 7
-11 9 5 9 l20 1 -20 16 c-16 13 -17 15 -2 10 9 -4 17 -2 17 4 0 6 5 7 12 3 6
-4 8 -3 4 4 -3 6 -16 9 -28 7 -11 -3 -18 -1 -14 2 12 12 58 14 71 3 10 -8 15
-8 21 1 4 7 3 9 -3 6 -6 -4 -13 0 -16 8 -5 12 -2 12 21 2 15 -6 30 -15 33 -20
3 -5 9 -1 12 8 5 10 3 14 -5 9 -7 -4 -8 -3 -4 5 4 6 18 9 31 7 17 -3 22 0 20
12 -1 10 3 21 9 25 7 6 6 7 -4 4 -8 -2 -14 -11 -12 -18 2 -8 0 -10 -4 -6 -14
14 -13 37 2 37 9 0 12 5 9 10 -4 6 -12 8 -18 4 -7 -3 -5 0 4 8 17 14 14 42 -3
32 -7 -5 -8 -2 -3 5 4 7 15 11 26 8 17 -5 54 24 44 35 -3 2 1 5 8 5 8 0 14 -6
14 -13 0 -7 -4 -11 -9 -8 -4 3 -8 0 -8 -5 0 -14 17 -14 25 -1 3 6 14 10 24 10
10 0 26 11 35 25 19 29 20 35 5 35 -5 0 -7 -4 -4 -10 4 -6 -1 -7 -11 -3 -14 5
-13 8 7 19 21 12 19 19 -3 15 -5 0 -8 4 -8 9 0 6 7 10 15 10 10 0 14 9 11 30
-2 17 -1 28 2 25 3 -2 11 0 18 6 8 7 14 6 20 -2 4 -7 3 -9 -4 -5 -6 3 -13 2
-16 -3 -10 -15 23 -6 44 12 23 20 27 11 5 -13 -13 -14 -13 -17 0 -17 8 0 12 4
9 9 -3 4 10 6 29 4 30 -4 33 -2 32 17 -3 32 5 47 24 47 11 0 12 3 4 8 -7 4
-11 18 -8 31 3 17 0 21 -10 17 -8 -3 -15 -1 -15 4 0 6 7 10 16 10 8 0 12 5 9
10 -4 6 -11 7 -17 4 -7 -4 -8 -2 -4 4 4 6 12 10 19 8 7 -1 9 -1 4 1 -4 3 -4 9
-1 15 4 6 -2 8 -17 4 -24 -7 -24 -7 1 8 22 14 21 21 -3 17 -5 -1 -6 3 -2 9 3
6 10 8 15 5 5 -3 12 0 16 6 4 8 3 9 -4 5 -7 -4 -12 -2 -12 4 0 6 -5 8 -12 4
-7 -5 -8 -3 -4 5 5 7 15 10 25 7 14 -5 14 -4 -1 7 -14 11 -15 16 -5 26 6 6 12
18 12 26 0 8 4 14 10 12 5 -1 9 -6 7 -10 -1 -5 2 -5 8 -2 6 4 9 13 6 21 -3 8
0 11 9 7 8 -3 13 -9 10 -13 -3 -5 0 -12 6 -16 8 -4 9 -3 5 4 -4 7 -2 12 4 12
6 0 8 4 5 10 -3 5 0 7 9 4 8 -3 17 -12 20 -20 6 -17 26 -10 26 9 0 7 -4 6 -10
-3 -6 -9 -10 -10 -10 -3 0 16 17 26 25 13 9 -15 25 -2 19 15 -4 8 -11 12 -18
8 -6 -3 -5 0 2 8 11 12 14 12 23 -1 9 -12 10 -12 5 3 -3 10 -6 21 -6 23 0 3
-4 2 -10 -1 -5 -3 -10 -1 -10 4 0 6 5 11 11 11 5 0 7 5 4 10 -4 6 -12 7 -18 3
-7 -4 -6 0 2 10 7 9 10 17 7 17 -4 0 0 10 8 22 11 15 12 26 5 39 -6 12 -5 20
1 24 6 4 8 11 5 16 -4 5 0 9 7 9 7 0 0 13 -17 27 -29 26 -29 26 -5 20 22 -5
23 -5 8 7 -26 19 -22 24 15 20 17 -1 26 0 20 3 -18 7 -16 23 2 23 8 0 15 -8
15 -17 0 -15 2 -16 9 -3 6 8 7 18 4 24 -3 5 -1 6 5 2 7 -4 12 -13 12 -21 0 -7
7 -16 16 -19 15 -6 15 -4 3 11 -9 11 -10 14 -2 9 24 -13 52 -15 47 -2 -3 7 4
12 16 12 22 0 27 -12 8 -18 -9 -3 -9 -6 0 -12 7 -4 12 -2 12 4 0 6 5 8 12 4 8
-5 9 -2 4 11 -5 15 -4 16 8 6 11 -9 20 -10 35 -1 12 6 21 7 21 1 0 -5 -5 -11
-12 -13 -9 -3 -9 -6 0 -12 7 -4 12 -2 12 4 0 6 5 8 12 4 8 -5 9 -2 4 11 -5 15
-4 16 8 6 11 -9 20 -10 35 -1 12 6 21 7 21 1 0 -5 -5 -11 -12 -13 -9 -3 -9 -6
0 -12 7 -4 12 -2 12 4 0 6 5 8 12 4 8 -5 9 -2 4 11 -5 15 -4 16 8 6 11 -9 20
-9 34 -2 16 8 21 7 27 -6 5 -15 8 -15 15 -3 5 8 6 18 3 24 -3 5 -1 6 6 2 6 -4
9 -11 6 -16 -3 -5 0 -12 6 -16 7 -4 9 -3 6 3 -4 6 0 13 8 17 8 3 15 13 15 21
0 10 -5 13 -12 9 -7 -4 -10 -4 -6 1 4 4 2 15 -5 24 -10 14 -10 14 4 3 14 -10
18 -10 23 4 8 21 8 24 -5 24 -5 0 -7 -6 -3 -12 4 -7 3 -9 -1 -5 -13 11 -15 38
-2 30 7 -4 8 0 4 11 -4 10 -3 15 3 11 6 -3 10 -1 10 4 0 6 5 11 10 11 7 0 6
-8 -1 -22 -10 -19 -10 -21 2 -12 17 12 48 12 69 -1 13 -7 13 -6 2 7 -10 13
-10 17 3 22 9 3 14 2 11 -2 -2 -4 4 -8 14 -8 14 0 16 3 8 13 -8 10 -6 13 8 13
17 1 18 1 2 11 -9 5 -15 16 -12 24 4 8 9 13 13 11 4 -3 7 6 7 19 0 13 -4 21
-8 19 -5 -3 -6 -10 -3 -15 4 -5 -2 -6 -11 -2 -11 4 -13 8 -6 11 7 2 12 10 12
18 0 9 -5 12 -12 9 -7 -4 -2 2 11 13 18 14 21 21 11 27 -8 5 -11 4 -7 -2 3 -5
0 -10 -8 -10 -10 0 -12 4 -5 12 5 7 6 16 2 20 -4 5 -2 5 5 1 15 -8 27 10 12
20 -8 4 -9 3 -5 -4 5 -8 1 -10 -10 -5 -11 4 -13 8 -6 11 7 2 9 9 5 15 -4 7 0
8 13 4 18 -7 18 -7 0 8 -20 15 -20 15 0 15 10 0 15 4 9 8 -5 4 -17 16 -25 26
-14 18 -13 18 10 12 14 -4 20 -4 14 1 -7 4 -13 22 -15 38 -2 17 -8 36 -14 44
-7 11 -7 13 3 7 8 -5 12 0 12 18 0 13 6 27 13 29 9 4 9 6 -1 6 -7 1 -10 6 -6
13 4 7 3 8 -4 4 -7 -4 -12 -2 -12 3 0 6 4 11 9 11 5 0 12 7 15 16 5 14 4 15
-9 4 -13 -11 -14 -10 -9 3 3 9 2 22 -2 29 -15 23 -13 37 4 31 10 -4 13 -2 8 5
-4 7 -2 12 6 12 9 0 10 3 2 8 -6 4 -10 20 -8 37 2 21 1 26 -6 15 -8 -13 -11
-13 -22 -1 -7 8 -8 11 -2 8 6 -3 11 0 11 8 0 12 -3 12 -16 2 -9 -6 -19 -16
-23 -22 -5 -6 -8 -5 -8 4 0 9 -11 12 -39 9 -22 -2 -37 0 -35 4 2 3 0 9 -6 13
-5 3 -15 15 -21 27 -6 11 -7 18 -2 15 5 -3 15 -2 23 4 12 7 11 9 -4 9 -11 0
-16 3 -13 6 3 4 2 16 -4 28 -9 18 -7 17 12 -4 18 -20 21 -21 14 -5 -4 11 -9
46 -9 77 -1 31 -5 60 -10 65 -5 4 -6 3 -2 -4 5 -9 2 -11 -9 -7 -14 6 -14 8 2
21 10 8 13 12 7 9 -6 -3 -11 1 -11 8 0 9 7 12 16 8 14 -5 14 -4 1 10 -8 9 -18
14 -22 11 -5 -2 -8 3 -8 12 0 9 4 13 10 10 6 -3 7 1 3 10 -5 13 -7 14 -14 3
-7 -10 -9 -10 -9 2 0 9 -3 11 -8 5 -11 -15 -32 -17 -47 -5 -10 9 -16 6 -25
-10 -6 -11 -15 -18 -21 -14 -6 4 -5 12 3 22 12 14 10 14 -11 3 -13 -7 -21 -8
-17 -3 4 6 -2 15 -11 21 -13 7 -14 10 -4 11 8 0 11 3 8 7 -4 3 1 15 10 26 10
11 12 17 6 13 -12 -6 -15 0 -12 20 0 4 -5 11 -13 16 -10 7 -9 8 4 6 16 -3 18
-1 18 25 0 9 -3 8 -9 -2 -6 -9 -11 -10 -15 -2 -4 6 -2 11 5 11 7 0 9 3 6 7 -4
3 1 15 10 26 10 11 13 17 7 14 -7 -4 -15 0 -18 9 -4 11 -2 15 7 11 12 -5 14 3
8 44 -2 13 -41 51 -41 41 0 -7 -5 -12 -11 -12 -5 0 -8 4 -5 9 10 16 -23 20
-39 5 -14 -14 -19 -11 -16 9 1 5 -3 6 -9 2 -6 -3 -8 -10 -5 -15 3 -5 0 -12 -6
-16 -8 -4 -9 -3 -5 4 4 6 -2 17 -14 24 -11 7 -20 16 -20 21 0 4 4 6 9 2 5 -3
13 -1 16 5 4 6 1 9 -6 8 -6 -2 -14 3 -16 10 -3 6 0 12 6 12 6 0 11 5 11 11 0
5 -4 8 -9 4 -6 -3 -9 3 -9 12 0 10 0 23 -2 28 -1 6 -2 23 -1 38 1 20 5 26 14
21 7 -4 9 -3 4 2 -5 5 -13 9 -18 9 -8 0 -11 8 -8 18 15 49 12 88 -7 107 -10 8
-14 9 -10 2 8 -13 5 -13 -62 2 -13 3 -20 1 -17 -5 4 -5 10 -7 15 -4 5 3 11 1
15 -4 3 -6 -4 -8 -17 -6 -12 3 -26 -1 -31 -8 -6 -8 -7 -6 -3 6 4 13 1 17 -11
15 -10 -2 -18 2 -18 9 0 6 -3 15 -8 19 -4 4 -7 12 -7 18 0 5 6 1 14 -10 14
-18 15 -18 13 4 -1 12 -6 22 -11 22 -5 0 -1 7 10 15 12 9 13 13 4 10 -11 -4
-16 1 -17 15 -1 11 3 20 8 20 6 0 7 -5 3 -12 -4 -7 -3 -8 5 -4 16 10 -6 39
-23 29 -6 -3 -6 0 2 8 16 17 16 42 0 33 -7 -4 -4 3 7 16 11 13 14 20 8 16 -7
-4 -13 -2 -13 3 0 6 5 11 12 11 6 0 8 3 5 7 -4 3 -2 12 4 20 16 18 4 16 -15
-3 -9 -8 -16 -11 -16 -5 0 5 10 17 22 25 12 9 17 16 10 16 -8 0 -10 5 -6 12 4
7 3 8 -5 4 -6 -4 -8 -13 -4 -19 4 -7 0 -6 -10 2 -18 15 -23 26 -7 16 6 -3 10
-1 10 4 0 10 -14 13 -36 10 -4 0 -11 5 -15 13 -7 11 -9 11 -9 -1 0 -10 -3 -11
-14 -2 -10 8 -16 9 -21 1 -4 -6 -3 -9 2 -8 4 2 9 0 11 -4 2 -9 2 -9 -28 -1
-11 3 -20 9 -20 14 0 5 -6 9 -14 9 -8 0 -17 7 -20 16 -5 14 -4 15 9 4 13 -11
14 -10 9 5 -6 14 -4 16 6 10 9 -5 11 -4 6 4 -4 6 -12 9 -17 6 -5 -4 -9 1 -9
10 0 9 5 13 10 10 6 -3 10 -2 10 4 0 5 -5 11 -10 13 -6 2 -12 13 -15 26 -3 20
-2 21 18 11 l22 -12 -20 23 c-11 13 -14 20 -7 16 6 -4 12 -3 12 3 0 5 -5 11
-10 13 -6 2 -12 13 -15 26 -3 20 -2 21 18 10 19 -9 20 -9 11 3 -6 8 -10 22 -9
32 2 9 0 15 -5 12 -9 -6 -23 25 -15 33 3 3 5 0 5 -6 0 -7 5 -12 11 -12 8 0 7
5 -1 15 -7 9 -21 13 -31 10 -11 -4 -23 2 -34 17 -12 15 -15 17 -12 6 4 -10 2
-18 -3 -18 -6 0 -10 6 -10 13 0 7 -3 8 -8 2 -6 -9 -13 -10 -47 -6 -6 0 -10 13
-9 29 1 15 -8 37 -20 51 -11 13 -15 21 -8 17 6 -4 12 -2 12 4 0 6 4 9 8 6 5
-3 9 1 9 9 0 8 -4 12 -8 10 -14 -9 -17 23 -4 42 14 20 15 47 2 59 -4 4 -7 14
-7 23 0 14 2 14 10 1 7 -12 9 -10 7 8 -1 25 -7 27 -26 10 -11 -11 -12 -10 -5
2 5 8 9 18 9 22 0 3 4 10 9 15 5 5 6 2 1 -7 -7 -12 -6 -13 6 -2 12 11 12 14
-1 22 -13 9 -13 11 0 20 11 7 11 10 2 10 -7 0 -10 5 -6 12 4 6 3 8 -4 4 -6 -3
-14 -1 -18 5 -4 8 -3 9 4 5 7 -4 12 -2 12 4 0 6 6 8 13 4 9 -6 9 -4 0 7 -15
16 -17 53 -3 44 16 -10 11 1 -7 16 -11 10 -14 10 -9 2 4 -7 2 -13 -3 -13 -15
0 -14 27 2 33 6 2 -7 4 -30 3 -23 -1 -48 -7 -54 -13 -13 -13 -42 -6 -33 8 3 5
-2 9 -10 9 -9 0 -16 6 -17 13 0 6 -2 22 -5 35 -2 12 1 22 7 22 5 0 8 4 4 9 -3
5 -1 13 5 16 8 5 8 11 1 19 -6 7 -7 17 -3 22 4 4 -2 2 -12 -6 -11 -8 -17 -10
-14 -5 4 6 -2 16 -13 23 -15 10 -19 10 -19 -1 0 -7 -10 -13 -22 -14 -13 0 -17
1 -10 4 20 8 14 20 -10 18 -12 -1 -24 -8 -26 -16 -3 -11 -1 -11 7 1 7 9 11 10
11 3 0 -22 -21 -25 -27 -4 -5 18 -8 19 -21 9 -12 -10 -14 -10 -8 0 4 7 2 12
-4 12 -6 0 -8 5 -3 13 11 17 12 68 2 61 -5 -3 -9 -1 -9 5 0 5 8 12 18 14 16 4
16 5 0 6 -10 0 -18 6 -18 12 0 5 -6 7 -12 3 -8 -5 -7 0 2 11 8 10 10 16 3 12
-6 -4 -13 -1 -16 5 -3 9 -10 7 -21 -7 -16 -19 -16 -19 -14 -1 2 10 -4 21 -12
23 -12 4 -12 2 -2 -5 10 -7 9 -12 -4 -23 -10 -8 -15 -9 -11 -3 4 7 0 14 -7 17
-8 3 -17 1 -20 -6 -2 -7 -5 -5 -5 4 -1 21 -35 51 -46 42 -4 -5 -5 -2 -1 5 4 7
11 10 16 7 4 -3 10 1 12 8 7 16 -2 38 -12 32 -4 -3 -10 2 -13 10 -4 9 -1 12 9
8 17 -6 19 8 3 24 -8 8 -7 13 2 18 8 5 10 4 5 -3 -4 -7 -1 -12 9 -12 11 0 15
5 12 15 -8 18 13 32 23 15 5 -8 10 -9 14 -2 3 6 20 9 36 7 18 -3 28 0 25 5 -3
6 1 7 9 4 9 -3 13 -10 10 -15 -3 -5 2 -6 11 -2 12 4 13 8 5 13 -9 5 -9 9 -1
14 6 4 9 20 6 37 -4 19 -2 28 5 24 6 -4 7 1 3 10 -4 12 -8 13 -13 5 -5 -8 -9
-7 -13 5 -4 9 -3 13 2 10 5 -3 12 -1 16 5 3 5 1 10 -4 10 -11 0 -10 22 4 54 4
10 4 21 -1 25 -5 3 -10 12 -12 20 -2 11 0 12 10 4 10 -9 13 -2 13 37 0 38 -3
47 -15 43 -13 -4 -13 -4 0 6 13 9 13 14 1 33 -10 18 -10 20 0 11 18 -18 34
-16 20 1 -6 8 -11 18 -10 22 4 23 -2 35 -13 28 -8 -5 -7 0 2 11 8 10 10 16 4
12 -7 -4 -15 0 -18 9 -3 8 -2 12 3 9 5 -3 13 -1 16 5 4 6 3 10 -2 9 -21 -4
-34 2 -28 12 4 6 -2 5 -13 -2 -12 -7 -18 -18 -14 -24 3 -5 -1 -4 -9 2 -12 10
-18 10 -29 0 -10 -10 -11 -9 -5 2 6 11 4 13 -10 7 -14 -5 -15 -4 -7 7 8 10 6
13 -8 13 -10 0 -16 -4 -14 -8 3 -4 0 -8 -5 -8 -6 0 -11 6 -11 14 0 8 -6 17
-12 19 -8 3 -6 6 5 6 9 1 17 6 17 12 0 5 -4 8 -8 5 -4 -2 -14 -1 -22 5 -13 7
-12 9 2 9 9 0 20 4 23 10 3 5 0 7 -8 5 -10 -4 -13 5 -13 35 0 26 5 40 13 40 7
0 13 4 13 10 0 5 -6 7 -14 4 -8 -3 -17 0 -22 7 -4 7 -3 10 3 6 6 -4 17 1 24
10 10 12 10 14 2 9 -7 -4 -14 -4 -14 1 -1 4 -3 18 -4 29 -1 12 -5 26 -9 33 -5
7 -1 9 8 5 9 -3 13 -11 9 -17 -4 -6 -1 -7 6 -3 9 6 8 13 -6 29 -10 11 -12 17
-5 13 6 -4 12 -2 12 3 0 6 -4 11 -10 11 -5 0 -10 5 -10 11 0 5 5 7 10 4 6 -3
10 -1 10 4 0 6 -4 11 -9 11 -17 0 -20 29 -5 45 15 15 7 21 -20 16 -5 -1 -3 6
5 15 8 9 14 20 14 23 0 3 6 5 12 5 7 -1 10 2 7 8 -3 5 -23 7 -45 5 -30 -3 -42
0 -54 17 -9 12 -13 15 -10 9 3 -7 1 -21 -5 -30 -11 -17 -11 -17 -6 1 5 13 2
17 -9 12 -8 -3 -15 0 -15 5 0 6 -9 9 -19 6 -19 -5 -22 7 -8 31 5 7 4 12 -2 12
-6 0 -11 5 -11 11 0 6 7 9 14 6 10 -4 13 -1 9 9 -3 7 0 14 6 14 6 0 11 4 11 8
0 5 -7 9 -15 9 -8 0 -12 -4 -9 -8 2 -4 1 -10 -4 -13 -4 -2 -8 8 -7 24 0 19 3
25 11 19 17 -14 11 34 -6 49 -13 12 -13 13 1 9 13 -4 15 -1 12 14 -3 10 -9 16
-14 13 -5 -3 -9 0 -9 5 0 6 5 11 11 11 6 0 3 7 -5 16 -20 19 -21 31 -2 15 11
-9 16 -9 22 0 4 8 3 9 -4 5 -7 -4 -12 -3 -12 3 0 5 5 11 12 13 7 3 5 7 -6 11
-11 5 -15 3 -10 -5 5 -7 3 -8 -5 -4 -7 5 -10 15 -7 23 3 8 1 11 -4 8 -6 -3
-10 -1 -10 4 0 6 -5 11 -11 11 -8 0 -8 -4 0 -13 9 -11 4 -14 -24 -13 -18 1
-38 6 -42 10 -5 5 -2 6 6 1 10 -6 12 -4 7 4 -6 9 -11 9 -23 -1 -21 -17 -42 12
-37 53 3 22 0 28 -9 23 -8 -5 -7 -2 2 9 11 14 11 17 0 17 -8 0 -5 6 7 15 17
13 17 14 2 15 -10 0 -18 5 -18 11 0 5 6 7 13 3 8 -5 8 -2 -2 9 -15 18 -26 23
-16 7 3 -5 -1 -10 -10 -10 -10 0 -13 -5 -9 -12 5 -9 3 -9 -9 1 -9 7 -28 11
-42 9 -16 -3 -30 1 -37 11 -12 15 -11 15 7 1 19 -14 19 -14 6 3 -7 9 -20 17
-27 17 -8 0 -14 6 -14 13 0 8 -4 7 -10 -3 -5 -8 -10 -10 -10 -5 0 6 -16 10
-35 11 -22 0 -32 -3 -28 -10 4 -6 -1 -4 -12 4 -19 16 -21 16 -44 -3 -9 -7 -12
-8 -8 -1 3 6 -1 11 -9 11 -8 0 -13 -6 -10 -13 7 -17 -10 -28 -20 -13 -5 8 -3
9 6 4 9 -5 11 -4 6 4 -12 19 -27 2 -16 -19 7 -13 7 -21 0 -25 -6 -4 -10 -3 -9
2 4 22 -3 25 -17 7 -8 -10 -13 -14 -10 -8 3 7 -1 15 -10 18 -11 4 -15 2 -11
-7 3 -8 -1 -14 -9 -14 -10 0 -12 7 -8 21 4 15 3 17 -4 7 -5 -7 -14 -11 -20 -7
-6 3 -14 1 -18 -5 -5 -8 -3 -9 7 -4 8 5 11 4 6 -1 -5 -5 -12 -9 -15 -9 -4 0
-13 -4 -20 -9 -12 -7 -12 -4 -2 15 11 23 10 23 -4 5 -17 -21 -22 -51 -7 -41 5
3 12 1 15 -4 4 -5 1 -13 -5 -17 -8 -5 -9 -3 -4 7 8 12 6 12 -8 0 -19 -15 -23
-26 -6 -15 13 8 9 -44 -5 -66 -6 -8 -6 -12 -2 -8 10 9 37 -23 30 -34 -3 -5
-11 -8 -17 -8 -8 0 -8 3 1 9 11 7 11 9 -1 14 -15 6 -16 -4 -4 -33 7 -17 5 -39
-6 -57 -4 -6 -2 -15 4 -19 8 -5 9 -3 4 6 -6 9 -4 11 5 5 9 -6 11 -4 5 5 -6 9
-4 11 4 5 9 -5 10 -10 2 -18 -15 -15 -14 -30 1 -21 7 4 8 3 4 -5 -4 -6 -11 -9
-16 -6 -5 3 -11 1 -14 -4 -8 -13 -36 -7 -46 9 -5 8 -12 11 -16 7 -4 -3 -1 -13
5 -21 9 -11 9 -16 0 -22 -7 -4 -9 -3 -6 3 4 6 0 14 -9 17 -8 3 -12 11 -8 17 4
8 3 9 -5 5 -6 -4 -9 -12 -6 -17 8 -11 7 -11 -33 1 -29 8 -32 7 -22 -5 7 -8 17
-12 23 -8 6 3 7 1 3 -6 -4 -6 -12 -9 -17 -6 -13 9 -11 -19 3 -33 9 -9 9 -12
-1 -12 -8 0 -11 -6 -7 -16 4 -9 2 -13 -5 -8 -7 4 -10 1 -7 -7 3 -8 11 -13 17
-11 8 1 8 -3 -1 -17 -9 -15 -9 -25 0 -46 9 -20 9 -24 0 -19 -8 5 -9 2 -5 -10
4 -11 3 -15 -4 -10 -12 7 -3 -33 12 -52 5 -7 3 -11 -6 -11 -8 0 -12 4 -9 8 2
4 0 10 -5 13 -5 4 -8 -2 -6 -11 2 -10 4 -22 4 -26 1 -5 7 -5 14 -1 9 6 9 5 0
-8 -7 -8 -10 -17 -7 -21 3 -3 -2 -4 -13 -3 -10 2 -16 7 -13 12 3 5 9 8 13 6 5
-1 6 2 2 8 -3 6 -12 7 -18 3 -20 -12 -58 -13 -51 0 3 7 -4 1 -16 -13 -12 -14
-19 -20 -16 -14 3 7 -1 17 -8 23 -12 10 -14 8 -10 -11 2 -13 2 -17 -2 -10 -3
6 -11 12 -16 12 -6 0 -9 -3 -5 -6 3 -4 -1 -13 -9 -21 -12 -13 -12 -18 4 -41
23 -33 22 -58 -1 -54 -9 2 -17 -2 -17 -8 0 -6 4 -9 9 -5 16 10 21 -12 6 -25
-15 -13 -11 -35 5 -25 5 3 11 1 15 -5 3 -5 -1 -10 -10 -10 -9 0 -13 -5 -10
-10 4 -6 1 -18 -7 -27 -7 -9 -8 -14 -2 -10 14 8 13 -70 0 -92 -7 -10 -6 -12 4
-6 10 6 12 3 7 -14 -4 -16 -2 -21 7 -18 14 6 15 -28 1 -40 -4 -5 -5 -3 -1 4 3
6 1 15 -6 19 -7 4 -10 4 -6 -1 4 -4 2 -15 -5 -23 -10 -13 -9 -14 1 -8 9 5 12
-1 10 -23 -1 -17 -7 -31 -13 -31 -5 0 -3 -5 5 -10 13 -9 13 -11 0 -20 -8 -5
-10 -10 -4 -10 5 0 14 4 20 10 6 6 10 3 10 -9 0 -11 -5 -17 -13 -14 -9 4 -11
0 -7 -11 3 -9 11 -13 18 -9 6 3 2 -3 -8 -15 -11 -12 -15 -22 -10 -22 5 0 2 -5
-6 -10 -8 -5 -10 -10 -3 -10 12 0 12 -17 1 -35 -4 -6 -3 -17 3 -25 13 -22 11
-42 -3 -34 -7 4 -2 -5 12 -20 15 -16 18 -25 9 -21 -13 5 -15 0 -11 -24 2 -17
8 -29 12 -26 5 3 12 0 16 -6 5 -8 3 -9 -6 -4 -10 6 -12 4 -6 -10 5 -15 4 -16
-9 -5 -13 11 -14 10 -9 -4 3 -9 9 -16 13 -16 4 0 7 -9 8 -20 1 -11 -3 -20 -8
-20 -6 0 -8 4 -4 9 3 5 1 13 -5 16 -6 4 -10 3 -9 -2 1 -4 1 -17 0 -27 -1 -19
-1 -19 -14 -1 -11 14 -16 15 -22 5 -6 -9 -4 -11 5 -5 9 5 11 4 6 -3 -10 -17
-26 -15 -26 4 0 8 -5 12 -10 9 -6 -4 -7 -12 -4 -18 4 -7 4 -9 -1 -5 -4 4 -14
3 -21 -3 -10 -9 -15 -7 -20 4 -3 9 -13 18 -21 21 -12 5 -13 3 -5 -7 9 -10 5
-13 -16 -12 -15 0 -33 4 -40 9 -7 4 -19 2 -27 -4 -9 -7 -15 -8 -15 -2 0 15
-25 21 -41 10 -11 -8 -11 -9 3 -4 10 3 20 1 22 -3 3 -5 -5 -7 -17 -6 -12 1
-22 3 -22 4 0 10 -50 8 -57 -1 -5 -9 -8 -5 -9 12 0 22 -1 22 -8 6 -4 -11 -15
-20 -24 -22 -10 -1 -14 2 -10 8 4 7 -1 9 -14 6 -11 -3 -27 -1 -36 3 -10 6 -18
5 -23 -2 -4 -7 -3 -9 4 -5 6 3 13 2 16 -3 4 -5 -2 -8 -11 -7 -10 2 -21 -2 -25
-8 -5 -7 -8 -6 -8 5 0 8 3 19 8 25 4 5 -1 1 -10 -9 -10 -11 -18 -15 -18 -9 0
15 -28 23 -36 10 -4 -6 -3 -8 4 -4 6 3 13 2 16 -3 4 -5 -2 -8 -11 -6 -10 2
-22 4 -26 4 -5 1 -5 7 -1 14 5 7 1 6 -10 -3 -20 -15 -49 -23 -41 -10 6 9 -25
23 -33 15 -3 -3 -1 -5 5 -5 5 0 10 -7 10 -15 0 -10 -4 -12 -12 -5 -7 5 -16 6
-20 2 -5 -4 -5 -1 -1 6 4 6 3 12 -3 12 -5 0 -12 -6 -14 -12 -3 -8 -6 -6 -6 5
-1 9 -6 17 -12 17 -5 0 -8 -4 -4 -9 3 -5 1 -12 -4 -15 -5 -4 -8 5 -6 19 1 15
-4 29 -14 35 -9 5 -11 10 -4 10 6 0 10 9 8 20 -2 12 0 18 6 14 6 -3 7 5 3 22
-5 21 -4 25 6 19 9 -5 11 -4 6 4 -4 6 -12 9 -17 6 -5 -4 -5 3 0 18 6 14 7 28
4 31 -4 3 0 6 7 6 11 0 10 3 -2 13 -20 16 -31 48 -15 41 7 -2 13 4 14 16 1 13
-4 20 -15 20 -14 0 -15 2 -2 9 8 6 18 7 24 4 5 -3 6 -1 2 6 -4 6 -11 9 -15 7
-4 -3 -8 1 -8 9 0 8 3 12 7 10 3 -2 6 14 6 36 -1 21 -5 39 -11 39 -6 0 -6 3 1
8 16 11 25 42 12 39 -7 -1 -14 6 -16 16 -2 9 2 17 8 17 6 0 8 -5 4 -12 -4 -7
-3 -8 5 -4 9 6 9 11 0 22 -6 8 -8 14 -3 14 5 0 0 7 -10 15 -11 8 -15 15 -8 15
6 0 9 9 7 20 -2 12 0 18 6 14 6 -3 7 5 3 22 -5 21 -4 25 6 19 9 -5 11 -4 6 4
-4 6 -12 9 -17 6 -5 -4 -5 3 0 18 6 14 7 28 4 31 -4 3 0 6 7 6 11 0 10 3 -2
13 -20 16 -31 48 -15 41 8 -3 13 4 14 17 1 14 -3 19 -12 15 -8 -3 -17 -1 -20
5 -4 5 -11 6 -17 3 -7 -5 -9 -1 -5 9 3 9 1 19 -5 23 -7 4 -8 3 -4 -4 5 -8 -3
-12 -23 -12 -16 0 -31 3 -34 8 -2 4 -2 1 -1 -5 4 -15 -5 -16 -25 -4 -8 5 -11
16 -7 26 5 15 4 16 -8 6 -11 -9 -15 -8 -20 4 -3 9 -2 14 3 10 14 -8 19 17 10
43 -5 13 -5 21 -1 18 4 -2 9 4 9 15 1 10 -3 19 -8 19 -6 0 -7 -5 -3 -12 5 -7
3 -8 -6 -3 -10 6 -9 11 5 22 18 13 18 13 0 13 -18 0 -18 1 1 15 16 13 16 15 2
13 -9 -2 -16 2 -15 7 1 6 5 9 9 8 3 -1 9 4 11 12 4 10 0 12 -16 10 -19 -4 -20
-3 -6 8 20 16 32 47 18 47 -6 0 -9 8 -7 18 3 11 0 19 -8 19 -17 0 -17 -3 -3
-29 8 -15 8 -23 -2 -32 -9 -8 -10 -8 -5 1 4 7 2 22 -4 33 -9 17 -14 19 -26 9
-12 -10 -13 -9 -7 7 6 17 5 17 -10 5 -9 -7 -17 -10 -17 -6 0 4 -7 2 -15 -5
-14 -11 -19 -7 -16 13 2 11 -14 8 -28 -5 -11 -11 -12 -9 -4 7 6 11 8 25 6 32
-2 6 1 14 6 18 7 4 7 12 -1 25 -9 14 -9 22 3 36 8 10 9 15 2 11 -7 -5 -16 1
-23 12 -7 14 -7 22 0 26 6 4 9 3 8 -2 -3 -7 5 -13 17 -13 3 0 -3 12 -12 27
-18 26 -17 27 2 19 18 -7 18 -5 -2 14 -26 23 -32 40 -8 20 9 -7 18 -10 22 -6
3 3 1 6 -6 6 -7 0 -11 7 -8 15 4 8 1 17 -5 21 -7 4 -8 3 -4 -4 4 -7 2 -12 -3
-12 -12 0 -14 13 -4 24 11 10 12 37 2 30 -5 -3 -6 -10 -3 -16 4 -7 2 -8 -4 -4
-6 4 -8 14 -5 23 4 11 3 14 -5 9 -7 -4 -12 -1 -13 6 0 7 -4 4 -9 -7 -7 -17 -9
-17 -9 -2 -1 19 -16 23 -27 6 -4 -8 -9 -7 -15 2 -7 11 -9 9 -10 -6 0 -11 -3
-14 -6 -7 -2 6 -10 9 -16 5 -7 -4 -6 1 2 10 12 15 12 17 -3 11 -9 -3 -16 -11
-16 -17 0 -6 -6 -2 -14 8 -15 21 -12 40 5 29 5 -3 6 -10 3 -16 -4 -6 -2 -8 4
-5 7 5 7 14 -1 31 -8 16 -14 20 -19 13 -4 -7 -6 2 -4 18 2 17 -1 37 -8 45 -10
13 -9 13 6 1 10 -7 16 -17 13 -21 -3 -5 0 -12 6 -16 8 -4 9 -3 5 4 -4 7 -2 12
4 12 7 0 5 7 -4 16 -22 21 -76 30 -76 12 0 -8 -3 -9 -8 -3 -11 16 -54 15 -48
-1z m-284 -307 c0 -7 -4 -6 -10 3 -8 12 -10 12 -10 1 0 -8 -3 -12 -6 -8 -9 9
6 28 17 22 5 -4 9 -12 9 -18z m-42 -73 c0 -17 -3 -22 -8 -13 -5 6 -6 18 -3 26
8 19 11 16 11 -13z m611 7 c10 -6 10 -10 1 -16 -6 -4 -9 -13 -6 -21 3 -7 1
-16 -4 -19 -4 -3 -7 7 -5 22 1 16 -2 31 -9 35 -6 4 -6 8 -1 8 6 0 16 -4 24 -9z
m-618 -144 c-10 -9 -11 -8 -5 6 3 10 9 15 12 12 3 -3 0 -11 -7 -18z m1674
-177 c3 -5 -1 -10 -10 -10 -9 0 -13 5 -10 10 3 6 8 10 10 10 2 0 7 -4 10 -10z
m5 -124 c0 -2 -7 -7 -16 -10 -8 -3 -12 -2 -9 4 6 10 25 14 25 6z m-3 -101 c0
-8 -4 -12 -9 -9 -5 3 -6 10 -3 15 9 13 12 11 12 -6z m-2 -54 c3 -5 2 -12 -3
-15 -5 -3 -9 1 -9 9 0 17 3 19 12 6z m-745 -131 c0 -5 -5 -10 -11 -10 -5 0 -7
5 -4 10 3 6 8 10 11 10 2 0 4 -4 4 -10z m755 -20 c3 -6 -1 -7 -9 -4 -18 7 -21
14 -7 14 6 0 13 -4 16 -10z m-9 -195 c1 -8 -1 -15 -6 -15 -10 0 -20 26 -13 34
8 8 16 -1 19 -19z m1271 -77 c2 -12 1 -19 -2 -16 -3 3 -8 16 -10 28 -2 12 -1
20 2 16 4 -4 8 -16 10 -28z m-3272 -87 c3 -5 0 -13 -6 -17 -7 -4 -9 -3 -5 4 3
5 0 13 -6 15 -9 4 -10 6 -1 6 6 1 14 -3 18 -8z m3129 -109 c3 -5 -1 -9 -9 -9
-8 0 -12 4 -9 9 3 4 7 8 9 8 2 0 6 -4 9 -8z m304 -226 c-7 -8 -15 -12 -17 -11
-5 6 10 25 20 25 5 0 4 -6 -3 -14z m116 -115 c3 -4 -4 -7 -14 -6 -27 2 -33 10
-10 12 11 1 22 -2 24 -6z m-3710 -20 c3 -5 -1 -14 -8 -20 -12 -10 -14 -9 -11
6 2 10 4 19 4 21 2 5 10 2 15 -7z m3740 -37 c3 -8 2 -12 -4 -9 -6 3 -10 10
-10 16 0 14 7 11 14 -7z m-3747 -41 c-4 -3 -2 -12 5 -20 8 -11 7 -12 -6 -7 -9
3 -16 9 -16 13 0 9 11 21 18 21 3 0 2 -3 -1 -7z m3746 -28 c-3 -9 -8 -14 -10
-11 -3 3 -2 9 2 15 9 16 15 13 8 -4z m-3803 -105 c0 -5 -5 -10 -11 -10 -5 0
-7 5 -4 10 3 6 8 10 11 10 2 0 4 -4 4 -10z m3083 -47 c-5 -12 -3 -14 8 -8 11
6 12 5 2 -5 -7 -8 -16 -11 -19 -7 -7 6 2 37 10 37 3 0 2 -7 -1 -17z m737 13
c0 -3 -4 -8 -10 -11 -5 -3 -10 -1 -10 4 0 6 5 11 10 11 6 0 10 -2 10 -4z
m-809 -23 c13 -16 12 -17 -3 -4 -17 13 -22 21 -14 21 2 0 10 -8 17 -17z m49
-23 c8 -5 11 -10 5 -10 -5 0 -17 5 -25 10 -8 5 -10 10 -5 10 6 0 17 -5 25 -10z
m760 -94 c0 -3 -4 -8 -10 -11 -5 -3 -10 -1 -10 4 0 6 5 11 10 11 6 0 10 -2 10
-4z m-709 -89 c-6 -8 -7 -18 -3 -22 4 -5 1 -5 -6 -1 -10 6 -10 11 -1 22 6 8
14 14 16 14 3 0 0 -6 -6 -13z m-6 -46 c3 -5 2 -12 -3 -15 -5 -3 -9 1 -9 9 0
17 3 19 12 6z m-2475 -71 c0 -5 -4 -10 -10 -10 -5 0 -10 5 -10 10 0 6 5 10 10
10 6 0 10 -4 10 -10z m115 -48 c-3 -3 -11 0 -18 7 -9 10 -8 11 6 5 10 -3 15
-9 12 -12z m-1168 -417 c0 -8 -4 -12 -9 -9 -5 3 -6 10 -3 15 9 13 12 11 12 -6z
m4677 -33 c3 -5 -1 -9 -9 -9 -8 0 -12 4 -9 9 3 4 7 8 9 8 2 0 6 -4 9 -8z m31
-31 c3 -5 2 -12 -3 -15 -5 -3 -9 1 -9 9 0 17 3 19 12 6z m-4860 -160 c3 -5 2
-12 -3 -15 -5 -3 -9 1 -9 9 0 17 3 19 12 6z m1 -107 c1 -9 0 -13 -4 -10 -3 4
-7 14 -8 22 -1 9 0 13 4 10 3 -4 7 -14 8 -22z m4964 -4 c0 -5 -5 -10 -11 -10
-5 0 -7 5 -4 10 3 6 8 10 11 10 2 0 4 -4 4 -10z m-4891 -44 c9 -11 9 -16 -1
-22 -7 -4 -10 -4 -6 1 4 4 3 14 -3 22 -6 7 -9 13 -6 13 2 0 10 -6 16 -14z
m4954 -1 c6 -15 -10 -32 -20 -21 -4 3 -1 6 7 6 10 0 10 3 0 15 -7 9 -8 15 -2
15 5 0 12 -7 15 -15z m-5119 -17 c-6 -9 -44 -6 -44 3 0 4 11 6 24 5 13 0 22
-4 20 -8z m51 3 c3 -5 2 -12 -3 -15 -5 -3 -9 1 -9 9 0 17 3 19 12 6z m80 -9
c-3 -3 -11 0 -18 7 -9 10 -8 11 6 5 10 -3 15 -9 12 -12z m5052 -254 c-3 -8 -6
-5 -6 6 -1 11 2 17 5 13 3 -3 4 -12 1 -19z m99 -114 c-1 -8 -6 -17 -12 -21 -5
-4 -6 -4 -2 1 4 5 3 14 -2 21 -7 8 -5 12 4 12 8 0 13 -6 12 -13z m-5509 -19
c0 -8 -4 -12 -9 -9 -5 3 -6 10 -3 15 9 13 12 11 12 -6z m0 -150 c0 -8 -4 -12
-9 -9 -5 3 -6 10 -3 15 9 13 12 11 12 -6z m5660 -80 c0 -8 -4 -12 -9 -9 -4 3
-8 9 -8 15 0 5 4 9 8 9 5 0 9 -7 9 -15z m-5822 -293 c-3 -3 -11 0 -18 7 -9 10
-8 11 6 5 10 -3 15 -9 12 -12z m-4 -89 c13 -16 12 -17 -3 -4 -10 7 -18 15 -18
17 0 8 8 3 21 -13z m16 -39 c-3 -3 -12 -4 -19 -1 -8 3 -5 6 6 6 11 1 17 -2 13
-5z m138 -274 c3 -5 1 -10 -4 -10 -6 0 -11 5 -11 10 0 6 2 10 4 10 3 0 8 -4
11 -10z m130 -39 c3 -5 1 -12 -5 -16 -5 -3 -10 1 -10 9 0 18 6 21 15 7z m4925
-61 c0 -5 -5 -10 -11 -10 -5 0 -7 5 -4 10 3 6 8 10 11 10 2 0 4 -4 4 -10z m-5
-81 c-4 -5 -12 -9 -18 -8 -9 0 -8 2 1 6 6 2 9 10 6 15 -4 7 -2 8 5 4 6 -4 9
-12 6 -17z m-4455 -163 c0 -2 -8 -10 -17 -17 -16 -13 -17 -12 -4 4 13 16 21
21 21 13z m4300 -22 c0 -8 -19 -13 -24 -6 -3 5 1 9 9 9 8 0 15 -2 15 -3z
m-4159 -292 c-7 -2 -18 1 -23 6 -8 8 -4 9 13 5 13 -4 18 -8 10 -11z m4119 14
c0 -2 -7 -7 -16 -10 -8 -3 -12 -2 -9 4 6 10 25 14 25 6z m-136 -42 c3 -8 2
-12 -4 -9 -6 3 -10 10 -10 16 0 14 7 11 14 -7z m-124 -68 c0 -3 -4 -8 -10 -11
-5 -3 -10 -1 -10 4 0 6 5 11 10 11 6 0 10 -2 10 -4z m-2 -38 c-2 -7 3 -12 10
-10 13 2 16 -10 5 -21 -8 -8 -33 25 -27 35 8 12 14 9 12 -4z m-3681 -60 c2
-17 0 -19 -7 -8 -5 8 -6 18 -4 22 8 12 10 10 11 -14z m418 -97 c3 -5 2 -12 -3
-15 -5 -3 -9 1 -9 9 0 17 3 19 12 6z m-335 -13 c0 -4 -4 -8 -9 -8 -6 0 -12 4
-15 8 -3 5 1 9 9 9 8 0 15 -4 15 -9z m280 2 c0 -5 -5 -10 -11 -10 -5 0 -7 5
-4 10 3 6 8 10 11 10 2 0 4 -4 4 -10z m-218 -14 c7 4 8 2 4 -5 -9 -13 -26 -5
-25 12 0 9 2 8 6 -1 2 -6 10 -9 15 -6z m293 -5 c3 -5 2 -12 -3 -15 -5 -3 -9 1
-9 9 0 17 3 19 12 6z m2859 -129 c2 -4 -5 -9 -17 -9 -17 -2 -19 0 -7 7 18 12
18 12 24 2z m166 2 c0 -8 -19 -13 -24 -6 -3 5 1 9 9 9 8 0 15 -2 15 -3z
m-3260 -10 c0 -8 -19 -13 -24 -6 -3 5 1 9 9 9 8 0 15 -2 15 -3z m98 -19 c-3
-3 -9 2 -12 12 -6 14 -5 15 5 6 7 -7 10 -15 7 -18z"/>
<path d="M1990 5969 c0 -5 5 -7 10 -4 6 3 10 8 10 11 0 2 -4 4 -10 4 -5 0 -10
-5 -10 -11z"/>
<path d="M4106 5948 c3 -5 10 -6 15 -3 13 9 11 12 -6 12 -8 0 -12 -4 -9 -9z"/>
<path d="M4173 5885 c0 -8 4 -12 9 -9 4 3 8 9 8 15 0 5 -4 9 -8 9 -5 0 -9 -7
-9 -15z"/>
<path d="M1870 5844 c0 -8 5 -12 10 -9 6 4 8 11 5 16 -9 14 -15 11 -15 -7z"/>
<path d="M4176 5824 c3 -35 12 -41 12 -9 0 14 -4 27 -8 30 -4 2 -6 -7 -4 -21z"/>
<path d="M3643 5645 c0 -8 4 -12 9 -9 5 3 6 10 3 15 -9 13 -12 11 -12 -6z"/>
<path d="M3493 5575 c0 -8 4 -15 9 -15 4 0 8 4 8 9 0 6 -4 12 -8 15 -5 3 -9
-1 -9 -9z"/>
<path d="M2349 5533 c-12 -16 -12 -17 2 -6 9 7 20 9 24 5 5 -4 5 -1 1 6 -9 16
-11 15 -27 -5z"/>
<path d="M4413 5476 c0 -7 9 -12 19 -12 10 0 18 3 18 7 0 4 -8 9 -18 11 -10 3
-19 0 -19 -6z"/>
<path d="M3493 5455 c0 -8 4 -15 9 -15 4 0 8 4 8 9 0 6 -4 12 -8 15 -5 3 -9
-1 -9 -9z"/>
<path d="M4473 5425 c0 -8 4 -12 9 -9 5 3 6 10 3 15 -9 13 -12 11 -12 -6z"/>
<path d="M4475 5370 c-3 -5 -1 -10 4 -10 6 0 11 5 11 10 0 6 -2 10 -4 10 -3 0
-8 -4 -11 -10z"/>
<path d="M4485 5230 c-3 -5 -1 -10 4 -10 6 0 11 5 11 10 0 6 -2 10 -4 10 -3 0
-8 -4 -11 -10z"/>
<path d="M2591 5223 c-1 -18 13 -23 29 -11 12 8 12 9 -2 5 -9 -3 -19 -1 -22 6
-3 9 -5 9 -5 0z"/>
<path d="M3345 5221 c-3 -5 -2 -12 3 -15 5 -3 9 1 9 9 0 17 -3 19 -12 6z"/>
<path d="M4485 5110 c-3 -5 -1 -10 4 -10 6 0 11 5 11 10 0 6 -2 10 -4 10 -3 0
-8 -4 -11 -10z"/>
<path d="M4555 5009 c-3 -4 2 -6 10 -5 21 3 28 13 10 13 -9 0 -18 -4 -20 -8z"/>
<path d="M2623 4975 c0 -8 4 -12 9 -9 5 3 6 10 3 15 -9 13 -12 11 -12 -6z"/>
<path d="M1335 4811 c-3 -5 -2 -12 3 -15 5 -3 9 1 9 9 0 17 -3 19 -12 6z"/>
<path d="M4643 4685 c0 -8 4 -12 9 -9 5 3 6 10 3 15 -9 13 -12 11 -12 -6z"/>
<path d="M4562 4522 c-8 -6 -2 -9 18 -9 20 0 26 3 18 9 -7 4 -15 8 -18 8 -3 0
-11 -4 -18 -8z"/>
<path d="M2623 4495 c0 -8 4 -12 9 -9 5 3 6 10 3 15 -9 13 -12 11 -12 -6z"/>
<path d="M2956 4447 c3 -10 9 -15 12 -12 3 3 0 11 -7 18 -10 9 -11 8 -5 -6z"/>
<path d="M3030 4449 c0 -5 5 -7 10 -4 6 3 10 8 10 11 0 2 -4 4 -10 4 -5 0 -10
-5 -10 -11z"/>
<path d="M3250 4445 c-7 -9 -11 -17 -9 -20 3 -2 10 5 17 15 14 24 10 26 -8 5z"/>
<path d="M1351 4447 c2 -1 13 -9 24 -17 19 -14 19 -14 6 3 -7 9 -18 17 -24 17
-6 0 -8 -1 -6 -3z"/>
<path d="M4955 3730 c-3 -5 -1 -10 4 -10 6 0 11 5 11 10 0 6 -2 10 -4 10 -3 0
-8 -4 -11 -10z"/>
<path d="M5077 3593 c-10 -9 -9 -23 1 -23 5 0 9 7 9 15 0 17 -1 18 -10 8z"/>
<path d="M853 3375 c0 -8 4 -15 9 -15 4 0 8 4 8 9 0 6 -4 12 -8 15 -5 3 -9 -1
-9 -9z"/>
<path d="M5425 2840 c-3 -6 1 -7 9 -4 18 7 21 14 7 14 -6 0 -13 -4 -16 -10z"/>
<path d="M5435 2770 c-3 -5 -1 -10 4 -10 6 0 11 5 11 10 0 6 -2 10 -4 10 -3 0
-8 -4 -11 -10z"/>
<path d="M537 2595 c3 -8 9 -12 14 -9 12 7 11 11 -5 17 -10 4 -13 1 -9 -8z"/>
<path d="M367 2389 c7 -9 10 -19 6 -22 -3 -4 -1 -7 5 -7 17 0 15 16 -5 31 -16
12 -17 12 -6 -2z"/>
<path d="M261 2277 c-1 -11 -6 -15 -13 -11 -7 5 -8 3 -3 -5 10 -16 29 2 22 21
-4 8 -6 7 -6 -5z"/>
<path d="M5766 2041 c-3 -5 2 -15 12 -22 15 -12 16 -12 5 2 -7 9 -10 19 -6 22
3 4 4 7 0 7 -3 0 -8 -4 -11 -9z"/>
<path d="M5830 2026 c0 -2 8 -10 18 -17 15 -13 16 -12 3 4 -13 16 -21 21 -21
13z"/>
<path d="M5900 1896 c0 -2 7 -7 16 -10 8 -3 12 -2 9 4 -6 10 -25 14 -25 6z"/>
<path d="M55 1759 c-4 -6 -5 -12 -2 -15 2 -3 7 2 10 11 7 17 1 20 -8 4z"/>
<path d="M5913 1725 c0 -8 4 -12 9 -9 5 3 6 10 3 15 -9 13 -12 11 -12 -6z"/>
<path d="M55 1619 c-10 -15 3 -25 16 -12 7 7 7 13 1 17 -6 3 -14 1 -17 -5z"/>
<path d="M56 1458 c3 -5 10 -6 15 -3 13 9 11 12 -6 12 -8 0 -12 -4 -9 -9z"/>
<path d="M5695 1210 c3 -5 8 -10 11 -10 2 0 4 5 4 10 0 6 -5 10 -11 10 -5 0
-7 -4 -4 -10z"/>
<path d="M665 1181 c-3 -5 -2 -12 3 -15 5 -3 9 1 9 9 0 17 -3 19 -12 6z"/>
<path d="M5283 1025 c0 -8 4 -12 9 -9 5 3 6 10 3 15 -9 13 -12 11 -12 -6z"/>
<path d="M760 890 c-9 -6 -10 -10 -3 -10 6 0 15 5 18 10 8 12 4 12 -15 0z"/>
<path d="M810 771 c0 -6 5 -11 11 -11 8 0 8 -4 2 -12 -12 -16 -13 -49 -1 -42
5 3 6 10 2 15 -3 5 -1 16 5 23 8 10 7 17 -4 26 -10 9 -15 9 -15 1z"/>
<path d="M815 679 c-4 -6 -5 -12 -2 -15 2 -3 7 2 10 11 7 17 1 20 -8 4z"/>
<path d="M5119 638 c-6 -21 -5 -38 1 -38 5 0 8 9 7 20 -1 17 -5 26 -8 18z"/>
<path d="M1285 210 c3 -5 8 -10 11 -10 2 0 4 5 4 10 0 6 -5 10 -11 10 -5 0 -7
-4 -4 -10z"/>
<path d="M1276 182 c-3 -5 1 -9 9 -9 8 0 12 4 9 9 -7 10 -11 10 -18 0z"/>
</g>
</svg>
